<svg xmlns="http://www.w3.org/2000/svg" version="1.1" xmlns:xlink="http://www.w3.org/1999/xlink" xmlns:svgjs="http://svgjs.dev/svgjs" width="100%" height="100%" viewBox="0 0 1000 600"><rect width="1000" height="600" x="0" y="0" fill="#f4a950"/><g><circle r="166.66666666666666" cx="530.6517130533854" cy="552.8737511806197" fill="#161b21" transform="matrix(0.3434208708246658,0,0,0.34342087082466577,0,110.13161160070086)"/><path d="M530.5412306905005 627.8737913901173L471.4503221688184 627.8737913901173L471.4503221688184 624.2437409200354L489.6321401754898 615.1528319166996L489.6321401754898 490.594752308496L471.4503221688184 481.50384330516033L471.4503221688184 477.87379283507835L530.5412306905005 477.87379283507835Q557.3720385128454 477.87379283507835 573.5967858312986 487.6591462761688Q589.8530988060136 497.41293406099777 589.8530988060136 518.5619237562579L589.8530988060136 518.5619237562579Q589.8530988060136 531.0619236358444 581.3303716153864 540.7210144518887Q572.807644424759 550.3801052679328 558.161179919385 556.0619233950176Q543.4831497577493 561.7437415221025 525.0803721572468 561.7437415221025L525.0803721572468 561.7437415221025L510.0866854329951 561.7437415221025L510.0866854329951 615.1528319166996L530.5412306905005 624.2437409200354L530.5412306905005 627.8737913901173ZM527.8265842520043 490.3737927146649L510.0866854329951 490.3737927146649L510.0866854329951 549.2437416425158L529.4048670650834 549.2437416425158Q547.3657254779239 549.2437416425158 557.5929981066765 541.1629336395508Q567.8202707354292 533.1136912928473 567.8202707354292 520.361166163168L567.8202707354292 520.361166163168Q567.8202707354292 504.4520754073306 557.4667354816302 497.41293406099777Q547.1447658840927 490.3737927146649 527.8265842520043 490.3737927146649L527.8265842520043 490.3737927146649Z " fill="#f4a950" transform="matrix(0.3434208708246658,0,0,0.34342087082466577,0,110.13161160070086)"/><path d="M866.890744554281 625.9001038773947L809.653903725867 625.9001038773947L809.653903725867 622.7476916670175L829.3907453908374 614.8529550010294L829.3907453908374 506.49221180432426L797.2361408449899 506.49221180432426L783.804123600774 535.4944041397945L780.6517113903968 535.4944041397945L780.6517113903968 495.63694888859055L895.9203491698414 495.63694888859055L895.9203491698414 535.4944041397945L892.7679369594642 535.4944041397945L879.3359197152485 506.49221180432426L847.1539028893106 506.49221180432426L847.1539028893106 614.8529550010294L866.890744554281 622.7476916670175L866.890744554281 625.9001038773947ZM956.5014881692642 625.9001038773947L914.2591645502097 625.9001038773947L914.2591645502097 622.7476916670175L926.7043397111771 616.4154549661728L926.7043397111771 500.37927334420147L914.8622347121949 490.09966831036274L914.8622347121949 488.7290543058509L941.3150849992732 477.8737913901173L942.4938130431534 477.8737913901173L942.4938130431534 549.7213775066273L943.2887691657703 549.7213775066273Q950.7723216304049 542.2104127619025 957.7898653335054 538.674228630262Q964.8074090366059 535.1106322185312 973.2778035844891 535.1106322185312L973.2778035844891 535.1106322185312Q984.9280226228396 535.1106322185312 992.3293382472035 540.9220355976613Q999.7306538715674 546.7608512568818 999.7306538715674 558.1917720545104L999.7306538715674 558.1917720545104L999.7306538715674 616.4154549661728L1012.1758290325348 622.7476916670175L1012.1758290325348 625.9001038773947L969.9335054134802 625.9001038773947L969.9335054134802 622.7476916670175L983.9411805395911 617.018525128158L983.9411805395911 567.4845350051005Q983.9411805395911 558.7948422164956 978.5135490817241 554.2444037215163Q973.0859176238574 549.7213775066273 964.3962248352524 549.7213775066273L964.3962248352524 549.7213775066273Q959.0782424977466 549.7213775066273 952.6637689566311 551.5031757124926Q946.2492954155158 553.2575616382678 942.4938130431534 556.6292720893669L942.4938130431534 556.6292720893669L942.4938130431534 617.018525128158L956.5014881692642 622.7476916670175L956.5014881692642 625.9001038773947ZM1070.7832838654604 627.8737880438919L1070.7832838654604 627.8737880438919Q1051.6495123624754 627.8737880438919 1040.5749512060197 616.2235690055413Q1029.5278023296546 604.5733499671908 1029.5278023296546 585.4395784642056L1029.5278023296546 585.4395784642056Q1029.5278023296546 570.6369472154779 1035.3666179888746 559.2882632581199Q1041.178021368005 547.9395793007619 1050.7449071194974 541.5251057596465Q1060.3117928709903 535.1106322185312 1071.5782399880773 535.1106322185312L1071.5782399880773 535.1106322185312Q1087.1758273594219 535.1106322185312 1096.1396429489291 545.9658951342649Q1105.130870818527 556.8211580499985 1105.130870818527 577.1610698769541L1105.130870818527 577.1610698769541L1104.1440287352784 578.1479119602027L1045.1253897009992 578.1479119602027Q1045.317275661631 587.2213766700709 1048.6889861127297 595.1983501763298Q1052.0332842837388 603.2027359626788 1059.4345999081024 608.1369463789215Q1066.8359155324665 613.0711567951639 1079.2810906934337 613.0711567951639L1079.2810906934337 613.0711567951639Q1090.1363536091676 613.0711567951639 1104.7196866171735 605.176420129176L1104.7196866171735 605.176420129176L1105.3227567791587 605.176420129176L1105.3227567791587 607.1501042956729Q1100.7723182841792 615.6479111236463 1091.808502694672 621.760849583769Q1082.8172748250745 627.8737880438919 1070.7832838654604 627.8737880438919ZM1068.4258277777003 543.8003250071362L1068.4258277777003 543.8003250071362Q1058.9411788664784 543.8003250071362 1052.9104772466262 550.4066845088832Q1046.9071879068642 557.0130440106302 1045.5091616222626 569.0470349702441L1045.5091616222626 569.0470349702441L1090.1363536091676 569.0470349702441Q1087.9433712019486 555.6424300061184 1082.5157397440817 549.7213775066273Q1077.0881082862147 543.8003250071362 1068.4258277777003 543.8003250071362ZM1228.6780171852229 625.9001038773947L1177.3622288563001 625.9001038773947L1177.3622288563001 622.7476916670175L1193.1517021882764 614.8529550010294L1193.1517021882764 506.6840977649559L1177.3622288563001 498.7893610989678L1177.3622288563001 495.63694888859055L1228.6780171852229 495.63694888859055Q1251.978455261924 495.63694888859055 1266.0683672283058 504.13475571656386Q1280.1856914747773 512.605150264447 1280.1856914747773 530.9713779249055L1280.1856914747773 530.9713779249055Q1280.1856914747773 541.8266408406391 1272.7843758504137 550.2147985482516Q1265.3830602260496 558.6029562558639 1252.6637622641801 563.5371666721064Q1239.91705202222 568.4713770883491 1223.9356927296121 568.4713770883491L1223.9356927296121 568.4713770883491L1210.9148596867499 568.4713770883491L1210.9148596867499 614.8529550010294L1228.6780171852229 622.7476916670175L1228.6780171852229 625.9001038773947ZM1226.3205610974628 506.49221180432426L1210.9148596867499 506.49221180432426L1210.9148596867499 557.6161141726154L1227.6911751019743 557.6161141726154Q1243.288762473319 557.6161141726154 1252.1703412225556 550.5985704695148Q1261.0519199717924 543.6084390465046 1261.0519199717924 532.5338778900489L1261.0519199717924 532.5338778900489Q1261.0519199717924 518.7180887245697 1252.060692102195 512.605150264447Q1243.0968765126872 506.49221180432426 1226.3205610974628 506.49221180432426L1226.3205610974628 506.49221180432426ZM1339.8074006710422 625.9001038773947L1299.127577017131 625.9001038773947L1299.127577017131 622.7476916670175L1311.5727521780982 616.4154549661728L1311.5727521780982 500.37927334420147L1299.7306471791162 490.09966831036274L1299.7306471791162 488.7290543058509L1326.1834974661942 477.8737913901173L1327.3622255100745 477.8737913901173L1327.3622255100745 616.4154549661728L1339.8074006710422 622.7476916670175L1339.8074006710422 625.9001038773947ZM1379.2810840009824 627.8737880438919L1379.2810840009824 627.8737880438919Q1369.9883210503926 627.8737880438919 1363.8753825902695 622.4461565860249Q1357.7624441301468 617.018525128158 1357.7624441301468 607.3419902563046L1357.7624441301468 607.3419902563046Q1357.7624441301468 597.665455384451 1364.9718737938792 590.5656748410797Q1372.153891177521 583.4658942977085 1389.1495048334677 579.5185259647144L1389.1495048334677 579.5185259647144L1407.8995044151898 575.1873857104572L1407.8995044151898 560.7685263829926Q1407.8995044151898 554.0525177608847 1402.4718729573228 549.227956465003Q1397.044241499456 544.3759828890311 1390.1363469167163 544.3759828890311L1390.1363469167163 544.3759828890311Q1382.6253821719915 544.3759828890311 1379.6648559222458 548.4330003423861Q1376.7043296725005 552.4900177957411 1376.7043296725005 559.1786141377588L1376.7043296725005 559.1786141377588L1376.7043296725005 564.7158947159867L1375.717487589252 565.7027367992353L1365.4652948355033 565.7027367992353Q1362.504768585758 565.7027367992353 1361.4082773821483 564.7158947159867Q1360.311786178539 563.7290526327381 1360.311786178539 560.1654562210074L1360.311786178539 560.1654562210074Q1360.311786178539 555.83431596675 1362.888540507021 551.2838774717708Q1365.4652948355033 546.7608512568818 1370.7832771730095 543.3891408057826L1370.7832771730095 543.3891408057826Q1376.3205577512372 539.8529566741421 1382.3238470909987 537.4680883062915Q1388.3545487108508 535.1106322185312 1395.2624432935904 535.1106322185312L1395.2624432935904 535.1106322185312Q1402.17033787633 535.1106322185312 1408.7766973780772 537.0843163850282Q1415.383056879824 539.0580005515253 1419.52231117345 543.6906758867752Q1423.6889777471656 548.3233512220252 1423.6889777471656 556.6292720893669L1423.6889777471656 556.6292720893669L1423.6889777471656 612.6873848739008Q1425.0595917516775 614.0579988784125 1427.63634608016 615.0448409616611Q1430.1856881285516 616.0316830449096 1434.7361266235312 616.0316830449096L1434.7361266235312 616.0316830449096L1442.2196790881658 616.0316830449096L1442.822749250151 616.4154549661728L1442.822749250151 617.018525128158Q1440.4652931623905 621.3496653824154 1435.8052055470503 624.6117267131535Q1431.1725302118002 627.8737880438919 1424.4565215896923 627.8737880438919L1424.4565215896923 627.8737880438919Q1418.3435831295697 627.8737880438919 1414.5058639169365 624.6117267131535Q1410.6407324242132 621.3496653824154 1409.0782324590696 616.0316830449096L1409.0782324590696 616.0316830449096L1407.8995044151898 616.0316830449096Q1402.745995758225 621.1577794217837 1395.1527941732297 624.5294898728828Q1387.559592588234 627.8737880438919 1379.2810840009824 627.8737880438919ZM1373.1407332607696 603.3946219233105L1373.1407332607696 603.3946219233105Q1373.1407332607696 615.6479111236463 1387.9433645094973 615.6479111236463L1387.9433645094973 615.6479111236463Q1392.685688965108 615.6479111236463 1397.318364300358 614.6610690403977Q1401.9784519156983 613.6742269571491 1407.8995044151898 611.097472628667L1407.8995044151898 611.097472628667L1407.8995044151898 581.8759820524749Q1392.1100310832135 584.8365083022204 1384.79095229912 588.0985696329585Q1377.499285795117 591.3606309636966 1375.3337156679886 595.116113336059Q1373.1407332607696 598.8715957084214 1373.1407332607696 603.3946219233105ZM1486.051914952454 627.8737880438919L1486.051914952454 627.8737880438919Q1477.3622221638489 627.8737880438919 1471.0573977430945 622.7476916670175Q1464.72516104225 617.6215952901432 1464.72516104225 608.3288323395532L1464.72516104225 608.3288323395532L1464.72516104225 546.3496670555282L1448.5519157890103 546.3496670555282L1448.5519157890103 545.170939011648L1465.3282312042352 537.0843163850282L1479.335906330346 515.3737905535609L1480.5146343742263 515.3737905535609L1480.5146343742263 537.0843163850282L1506.5837127400414 537.0843163850282L1506.5837127400414 546.3496670555282L1480.5146343742263 546.3496670555282L1480.5146343742263 604.9845341685443Q1480.5146343742263 610.1106305454184 1485.0650728692053 612.4680866331787Q1489.5880990840947 614.8529550010294 1495.7284498243075 614.8529550010294L1495.7284498243075 614.8529550010294Q1499.4565199165795 614.8529550010294 1502.7185812473176 614.4417707996759Q1505.9806425780557 614.0579988784125 1508.3380986658162 613.4549287164273L1508.3380986658162 613.4549287164273L1508.9411688278014 613.4549287164273L1508.9411688278014 615.4286128829244Q1506.9674846613043 619.9790513779037 1501.1560812821745 623.9264197108978Q1495.317265622954 627.8737880438919 1486.051914952454 627.8737880438919ZM1545.2624399473648 511.23453625993517L1545.2624399473648 511.23453625993517Q1540.1363435704907 511.23453625993517 1536.7646331193914 507.7805889685653Q1533.4203349483828 504.32664167719554 1533.4203349483828 499.392431260953L1533.4203349483828 499.392431260953Q1533.4203349483828 494.26633488407873 1536.7646331193914 490.89462443297964Q1540.1363435704907 487.5503262619708 1545.2624399473648 487.5503262619708L1545.2624399473648 487.5503262619708Q1550.3885363242393 487.5503262619708 1553.732834495248 490.89462443297964Q1557.1045449463472 494.26633488407873 1557.1045449463472 499.392431260953L1557.1045449463472 499.392431260953Q1557.1045449463472 504.32664167719554 1553.732834495248 507.7805889685653Q1550.3885363242393 511.23453625993517 1545.2624399473648 511.23453625993517ZM1566.1780096562156 625.9001038773947L1525.5255982823946 625.9001038773947L1525.5255982823946 622.7476916670175L1537.9433611632717 616.4154549661728L1537.9433611632717 557.6161141726154L1526.1012561642897 547.3365091387767L1526.1012561642897 545.9658951342649L1552.5541064513677 535.1106322185312L1553.732834495248 535.1106322185312L1553.732834495248 616.4154549661728L1566.1780096562156 622.7476916670175L1566.1780096562156 625.9001038773947ZM1628.3490609008718 625.9001038773947L1586.1067372818175 625.9001038773947L1586.1067372818175 622.7476916670175L1598.5519124427847 616.4154549661728L1598.5519124427847 557.6161141726154L1586.7098074438027 547.3365091387767L1586.7098074438027 545.9658951342649L1611.188973564384 535.1106322185312L1612.3677016082638 535.1106322185312L1614.1494998141293 549.7213775066273L1615.1363418973779 549.7213775066273Q1622.6198943620125 542.2104127619025 1629.6374380651132 538.674228630262Q1636.6275694881233 535.1106322185312 1645.1253763160967 535.1106322185312L1645.1253763160967 535.1106322185312Q1656.7755953544474 535.1106322185312 1664.176910978811 540.9220355976613Q1671.5782266031747 546.7608512568818 1671.5782266031747 558.1917720545104L1671.5782266031747 558.1917720545104L1671.5782266031747 616.4154549661728L1683.9959894840522 622.7476916670175L1683.9959894840522 625.9001038773947L1641.781078145088 625.9001038773947L1641.781078145088 622.7476916670175L1655.7887532711989 616.4154549661728L1655.7887532711989 567.4845350051005Q1655.7887532711989 558.7948422164956 1650.361121813332 554.2444037215163Q1644.933490355465 549.7213775066273 1636.24379756686 549.7213775066273L1636.24379756686 549.7213775066273Q1630.9258152293542 549.7213775066273 1624.5113416882386 551.5031757124926Q1618.0968681471236 553.2575616382678 1614.341385774761 556.6292720893669L1614.341385774761 556.6292720893669L1614.341385774761 616.4154549661728L1628.3490609008718 622.7476916670175L1628.3490609008718 625.9001038773947ZM1735.9148479749601 627.8737880438919L1735.9148479749601 627.8737880438919Q1724.2646289366098 627.8737880438919 1716.8633133122457 622.0623846647616Q1709.461997687882 616.2235690055413 1709.461997687882 604.7926482079126L1709.461997687882 604.7926482079126L1709.461997687882 546.3496670555282L1697.0442348070046 540.2367285954055L1697.0442348070046 537.0843163850282L1725.251471019858 537.0843163850282L1725.251471019858 595.4998852573224Q1725.251471019858 604.1895780459274 1730.6791024777249 608.7400165409067Q1736.1067339355918 613.2630427557956 1744.7964267241969 613.2630427557956L1744.7964267241969 613.2630427557956Q1750.1144090617026 613.2630427557956 1756.5288826028182 611.4812445499304Q1762.9433561439332 609.726858624155 1766.6988385162958 606.355148173056L1766.6988385162958 606.355148173056L1766.6988385162958 546.3496670555282L1752.691163390185 540.2367285954055L1752.691163390185 537.0843163850282L1782.4883118482721 537.0843163850282L1782.4883118482721 617.018525128158L1796.495986974383 622.7476916670175L1796.495986974383 625.9001038773947L1766.6988385162958 625.9001038773947L1766.6988385162958 613.4549287164273L1765.7119964330473 613.4549287164273Q1758.2284439684126 620.9658934611521 1751.2109002653124 624.4198407525218Q1744.1933565622116 627.8737880438919 1735.9148479749601 627.8737880438919ZM1852.7459857195481 625.9001038773947L1811.7098024244642 625.9001038773947L1811.7098024244642 622.7476916670175L1824.1275653053412 616.4154549661728L1824.1275653053412 557.6161141726154L1812.2854603063593 547.3365091387767L1812.2854603063593 545.9658951342649L1836.7646264269401 535.1106322185312L1837.9433544708204 535.1106322185312L1839.7251526766859 549.7213775066273L1840.7119947599344 549.7213775066273Q1848.0310735440275 542.2104127619025 1854.8293190064064 538.674228630262Q1861.6275644687848 535.1106322185312 1869.7415993754948 535.1106322185312L1869.7415993754948 535.1106322185312Q1879.1988360066266 535.1106322185312 1885.9148446287345 539.3595356325179Q1892.6308532508424 543.6084390465046 1894.6045374173395 552.0788335943876L1894.6045374173395 552.0788335943876L1895.1801952992346 552.0788335943876Q1903.4861161665763 543.3891408057826 1910.6955458303082 539.249886512157Q1917.8775632139505 535.1106322185312 1926.567256002555 535.1106322185312L1926.567256002555 535.1106322185312Q1937.6144048789206 535.1106322185312 1944.823834542653 540.9220355976613Q1952.033264206385 546.7608512568818 1952.033264206385 558.1917720545104L1952.033264206385 558.1917720545104L1952.033264206385 616.4154549661728L1964.4784393673526 622.7476916670175L1964.4784393673526 625.9001038773947L1922.2361157482978 625.9001038773947L1922.2361157482978 622.7476916670175L1936.2437908744087 616.4154549661728L1936.2437908744087 567.4845350051005Q1936.2437908744087 558.7948422164956 1931.0080453771734 554.2444037215163Q1925.7722998799386 549.7213775066273 1917.6856772533188 549.7213775066273L1917.6856772533188 549.7213775066273Q1910.9696686312109 549.7213775066273 1905.0486161317194 551.886947633756Q1899.1275636322284 554.0525177608847 1895.1801952992346 558.4110702952323L1895.1801952992346 558.4110702952323L1895.1801952992346 616.4154549661728L1908.804098504082 622.7476916670175L1908.804098504082 625.9001038773947L1866.1780029637644 625.9001038773947L1866.1780029637644 622.7476916670175L1879.3907219672583 616.4154549661728L1879.3907219672583 567.4845350051005Q1879.3907219672583 558.7948422164956 1874.1823887501132 554.2444037215163Q1868.946643252878 549.7213775066273 1860.8600206262581 549.7213775066273L1860.8600206262581 549.7213775066273Q1855.9258102100157 549.7213775066273 1849.7854594698028 551.5031757124926Q1843.6725210096797 553.2575616382678 1839.9170386373175 556.6292720893669L1839.9170386373175 556.6292720893669L1839.9170386373175 616.4154549661728L1852.7459857195481 622.7476916670175L1852.7459857195481 625.9001038773947ZM2085.448831405566 625.9001038773947L2034.1330430766434 625.9001038773947L2034.1330430766434 622.7476916670175L2049.92251640862 614.8529550010294L2049.92251640862 506.6840977649559L2034.1330430766434 498.7893610989678L2034.1330430766434 495.63694888859055L2085.448831405566 495.63694888859055Q2108.7492694822677 495.63694888859055 2122.8665937287396 504.13475571656386Q2136.9565056951215 512.605150264447 2136.9565056951215 530.9713779249055L2136.9565056951215 530.9713779249055Q2136.9565056951215 541.8266408406391 2129.555190070757 550.2147985482516Q2122.1538744463933 558.6029562558639 2109.434576484524 563.5371666721064Q2096.7152785226535 568.4713770883491 2080.706506949956 568.4713770883491L2080.706506949956 568.4713770883491L2067.6856739070936 568.4713770883491L2067.6856739070936 614.8529550010294L2085.448831405566 622.7476916670175L2085.448831405566 625.9001038773947ZM2083.0913753178065 506.49221180432426L2067.6856739070936 506.49221180432426L2067.6856739070936 557.6161141726154L2084.461989322318 557.6161141726154Q2100.059576693663 557.6161141726154 2108.941155442899 550.5985704695148Q2117.8227341921356 543.6084390465046 2117.8227341921356 532.5338778900489L2117.8227341921356 532.5338778900489Q2117.8227341921356 518.7180887245697 2108.831506322538 512.605150264447Q2099.867690733031 506.49221180432426 2083.0913753178065 506.49221180432426L2083.0913753178065 506.49221180432426ZM2200.52558322438 627.8737880438919L2200.52558322438 627.8737880438919Q2187.504750181517 627.8737880438919 2177.7185661893027 621.760849583769Q2167.9597944771785 615.6479111236463 2162.532163019312 605.176420129176Q2157.1045315614447 594.7049291347055 2157.1045315614447 581.4922101312116L2157.1045315614447 581.4922101312116Q2157.1045315614447 568.2794911277176 2162.532163019312 557.8080001332471Q2167.9597944771785 547.3365091387767 2177.7185661893027 541.2235706786539Q2187.504750181517 535.1106322185312 2200.52558322438 535.1106322185312L2200.52558322438 535.1106322185312Q2213.5464162672424 535.1106322185312 2223.3051879793666 541.2235706786539Q2233.091371971581 547.3365091387767 2238.5190034294474 557.8080001332471Q2243.946634887314 568.2794911277176 2243.946634887314 581.4922101312116L2243.946634887314 581.4922101312116Q2243.946634887314 594.7049291347055 2238.5190034294474 605.176420129176Q2233.091371971581 615.6479111236463 2223.3051879793666 621.760849583769Q2213.5464162672424 627.8737880438919 2200.52558322438 627.8737880438919ZM2203.2942235134933 619.3759812159185L2203.2942235134933 619.3759812159185Q2211.188960179482 619.3759812159185 2216.3150565563556 614.4417707996759Q2221.44115293323 609.5075603834332 2223.7986090209906 601.722472837806Q2226.1834773888413 593.937385292179 2226.1834773888413 585.4395784642056L2226.1834773888413 585.4395784642056Q2226.1834773888413 574.9680874697351 2223.3051879793666 565.3189648779719Q2220.454310849982 555.6424300061184 2214.2317232694977 549.5294915459956Q2208.0091356890143 543.3891408057826 2198.1407148565295 543.3891408057826L2198.1407148565295 543.3891408057826Q2190.0540922299097 543.3891408057826 2184.927995853035 548.3233512220252Q2179.8018994761605 553.2575616382678 2177.3347942680393 560.9604123436243Q2174.867689059918 568.6632630489808 2174.867689059918 577.3529558375858L2174.867689059918 577.3529558375858Q2174.867689059918 587.7970345519659 2177.8282153096634 597.4735694238195Q2180.7887415594096 607.1501042956729 2187.0935659801635 613.2630427557956Q2193.4258026810085 619.3759812159185 2203.2942235134933 619.3759812159185ZM2306.309572092602 625.9001038773947L2264.067248473548 625.9001038773947L2264.067248473548 622.7476916670175L2276.5124236345155 616.4154549661728L2276.5124236345155 557.6161141726154L2264.6703186355335 547.3365091387767L2264.6703186355335 545.9658951342649L2289.1494847561144 535.1106322185312L2290.3282127999946 535.1106322185312L2292.1100110058596 551.886947633756L2292.8775548483864 551.886947633756Q2297.4279933433654 544.5952811297531 2301.265712555999 540.9220355976613Q2305.130844048722 537.2762023456598 2308.4751422197314 536.2071234221406Q2311.8468526708302 535.1106322185312 2315.191150841839 535.1106322185312L2315.191150841839 535.1106322185312Q2316.7810630870727 535.1106322185312 2318.8369840938403 535.7137023805165Q2320.920317380698 536.2893602624114 2322.2909313852106 536.8924304243966L2322.2909313852106 536.8924304243966Q2324.456501512339 537.879272507645 2326.3479488385656 539.249886512157Q2328.211983884701 540.647912796759 2328.211983884701 542.4022987225342L2328.211983884701 542.4022987225342Q2328.211983884701 544.1840969283995 2327.417027762085 545.9658951342649L2327.417027762085 545.9658951342649L2323.46965942909 555.6424300061184L2322.0990454245784 555.6424300061184L2314.588080679854 552.6819037563728Q2312.422510552725 551.6950616731243 2310.366589545957 551.5031757124926Q2308.2832562590993 551.2838774717708 2306.309572092602 551.2838774717708L2306.309572092602 551.2838774717708Q2298.031063505351 551.2838774717708 2292.3018969664918 559.781684299744L2292.3018969664918 559.781684299744L2292.3018969664918 616.4154549661728L2306.309572092602 622.7476916670175L2306.309572092602 625.9001038773947ZM2373.2229477928704 627.8737880438919L2373.2229477928704 627.8737880438919Q2364.533255004265 627.8737880438919 2358.22843058351 622.7476916670175Q2351.896193882666 617.6215952901432 2351.896193882666 608.3288323395532L2351.896193882666 608.3288323395532L2351.896193882666 546.3496670555282L2335.7229486294264 546.3496670555282L2335.7229486294264 545.170939011648L2352.4992640446508 537.0843163850282L2366.506939170762 515.3737905535609L2367.6856672146423 515.3737905535609L2367.6856672146423 537.0843163850282L2393.754745580457 537.0843163850282L2393.754745580457 546.3496670555282L2367.6856672146423 546.3496670555282L2367.6856672146423 604.9845341685443Q2367.6856672146423 610.1106305454184 2372.2361057096214 612.4680866331787Q2376.7591319245103 614.8529550010294 2382.899482664723 614.8529550010294L2382.899482664723 614.8529550010294Q2386.627552756995 614.8529550010294 2389.889614087733 614.4417707996759Q2393.151675418472 614.0579988784125 2395.509131506232 613.4549287164273L2395.509131506232 613.4549287164273L2396.1122016682175 613.4549287164273L2396.1122016682175 615.4286128829244Q2394.1385175017203 619.9790513779037 2388.3271141225905 623.9264197108978Q2382.4882984633696 627.8737880438919 2373.2229477928704 627.8737880438919ZM2432.8172447090437 627.8737880438919L2432.8172447090437 627.8737880438919Q2423.5518940385446 627.8737880438919 2417.438955578422 622.4461565860249Q2411.298604838208 617.018525128158 2411.298604838208 607.3419902563046L2411.298604838208 607.3419902563046Q2411.298604838208 597.665455384451 2418.5080345019405 590.5656748410797Q2425.717464165673 583.4658942977085 2442.6856655415295 579.5185259647144L2442.6856655415295 579.5185259647144L2461.435665123251 575.1873857104572L2461.435665123251 560.7685263829926Q2461.435665123251 554.0525177608847 2456.0080336653837 549.227956465003Q2450.580402207517 544.3759828890311 2443.6725076247776 544.3759828890311L2443.6725076247776 544.3759828890311Q2436.1889551601435 544.3759828890311 2433.228428910398 548.4330003423861Q2430.267902660652 552.4900177957411 2430.267902660652 559.1786141377588L2430.267902660652 559.1786141377588L2430.267902660652 564.7158947159867L2429.281060577404 565.7027367992353L2419.0014555435646 565.7027367992353Q2416.0409292938193 565.7027367992353 2414.9718503703007 564.7158947159867Q2413.87535916669 563.7290526327381 2413.87535916669 560.1654562210074L2413.87535916669 560.1654562210074Q2413.87535916669 555.83431596675 2416.452113495173 551.2838774717708Q2419.0014555435646 546.7608512568818 2424.3468501611615 543.3891408057826L2424.3468501611615 543.3891408057826Q2429.8567184592985 539.8529566741421 2435.8874200791506 537.4680883062915Q2441.8907094189126 535.1106322185312 2448.798604001652 535.1106322185312L2448.798604001652 535.1106322185312Q2455.7064985843917 535.1106322185312 2462.3402703662287 537.0843163850282Q2468.9466298679754 539.0580005515253 2473.085884161602 543.6906758867752Q2477.2251384552274 548.3233512220252 2477.2251384552274 556.6292720893669L2477.2251384552274 556.6292720893669L2477.2251384552274 612.6873848739008Q2478.623164739829 614.0579988784125 2481.1725067882217 615.0448409616611Q2483.7492611167036 616.0316830449096 2488.2722873315925 616.0316830449096L2488.2722873315925 616.0316830449096L2495.7832520763177 616.0316830449096L2496.3863222383025 616.4154549661728L2496.3863222383025 617.018525128158Q2494.0014538704518 621.3496653824154 2489.368778535202 624.6117267131535Q2484.7361031999517 627.8737880438919 2478.0200945778442 627.8737880438919L2478.0200945778442 627.8737880438919Q2471.9071561177216 627.8737880438919 2468.042024624998 624.6117267131535Q2464.204305412365 621.3496653824154 2462.6143931671313 616.0316830449096L2462.6143931671313 616.0316830449096L2461.435665123251 616.0316830449096Q2456.3095687463765 621.1577794217837 2448.7163671613816 624.5294898728828Q2441.123165576386 627.8737880438919 2432.8172447090437 627.8737880438919ZM2426.704306248921 603.3946219233105L2426.704306248921 603.3946219233105Q2426.704306248921 615.6479111236463 2441.5069374976492 615.6479111236463L2441.5069374976492 615.6479111236463Q2446.2492619532604 615.6479111236463 2450.88193728851 614.6610690403977Q2455.5146126237596 613.6742269571491 2461.435665123251 611.097472628667L2461.435665123251 611.097472628667L2461.435665123251 581.8759820524749Q2445.6461917912748 584.8365083022204 2438.354525287272 588.0985696329585Q2431.0354465031787 591.3606309636966 2428.8698763760503 595.116113336059Q2426.704306248921 598.8715957084214 2426.704306248921 603.3946219233105ZM2547.893996527857 625.9001038773947L2507.2415851540363 625.9001038773947L2507.2415851540363 622.7476916670175L2519.659348034914 616.4154549661728L2519.659348034914 500.37927334420147L2507.817243035931 490.09966831036274L2507.817243035931 488.7290543058509L2534.27009332301 477.8737913901173L2535.44882136689 477.8737913901173L2535.44882136689 616.4154549661728L2547.893996527857 622.7476916670175L2547.893996527857 625.9001038773947Z " fill="#161b21" transform="matrix(0.3434208708246658,0,0,0.34342087082466577,0,110.13161160070086)"/></g></svg>